{
  "accessors": [
    {
      "bufferView": 2,
      "componentType": 5126,
      "count": 65532,
      "max": [
        54.93012237548828,
        2.9154069423675537,
        27.96936798095703
      ],
      "min": [
        5.790477752685547,
        0.0,
        0.2599906921386719
      ],
      "type": "VEC3"
    },
    {
      "bufferView": 2,
      "byteOffset": 786384,
      "componentType": 5126,
      "count": 65532,
      "max": [
        0.9998801946640015,
        0.998816192150116,
        0.9999833106994629
      ],
      "min": [
        -0.9999789595603943,
        -0.9999996423721313,
        -0.999971866607666
      ],
      "type": "VEC3"
    },
    {
      "bufferView": 1,
      "componentType": 5126,
      "count": 65532,
      "max": [
        0.9945510029792786,
        0.9996500015258789
      ],
      "min": [
        0.00014699999883305281,
        0.007052999921143055
      ],
      "type": "VEC2"
    },
    {
      "bufferView": 0,
      "componentType": 5125,
      "count": 287292,
      "type": "SCALAR"
    },
    {
      "bufferView": 2,
      "byteOffset": 1572768,
      "componentType": 5126,
      "count": 65532,
      "max": [
        54.95744705200195,
        2.9684019088745117,
        26.63005828857422
      ],
      "min": [
        5.80446720123291,
        1.2550139427185059,
        5.919097900390625
      ],
      "type": "VEC3"
    },
    {
      "bufferView": 2,
      "byteOffset": 2359152,
      "componentType": 5126,
      "count": 65532,
      "max": [
        0.9999417662620544,
        0.9994872212409973,
        0.9998250603675842
      ],
      "min": [
        -0.999943733215332,
        -0.9999992251396179,
        -0.9998268485069275
      ],
      "type": "VEC3"
    },
    {
      "bufferView": 1,
      "byteOffset": 524256,
      "componentType": 5126,
      "count": 65532,
      "max": [
        0.99509197473526,
        0.9996770024299622
      ],
      "min": [
        0.00017899999511428177,
        0.04346099868416786
      ],
      "type": "VEC2"
    },
    {
      "bufferView": 0,
      "byteOffset": 1149168,
      "componentType": 5125,
      "count": 257889,
      "type": "SCALAR"
    },
    {
      "bufferView": 2,
      "byteOffset": 3145536,
      "componentType": 5126,
      "count": 65532,
      "max": [
        56.91590881347656,
        3.013153076171875,
        28.514652252197266
      ],
      "min": [
        5.926715850830078,
        1.5105478763580322,
        5.049385070800781
      ],
      "type": "VEC3"
    },
    {
      "bufferView": 2,
      "byteOffset": 3931920,
      "componentType": 5126,
      "count": 65532,
      "max": [
        0.9997468590736389,
        0.9998777508735657,
        0.9993603825569153
      ],
      "min": [
        -0.9998151659965515,
        -1.0,
        -0.9998788237571716
      ],
      "type": "VEC3"
    },
    {
      "bufferView": 1,
      "byteOffset": 1048512,
      "componentType": 5126,
      "count": 65532,
      "max": [
        0.9961580038070679,
        0.9995909929275513
      ],
      "min": [
        0.00033599999733269215,
        0.006211999803781509
      ],
      "type": "VEC2"
    },
    {
      "bufferView": 0,
      "byteOffset": 2180724,
      "componentType": 5125,
      "count": 252615,
      "type": "SCALAR"
    },
    {
      "bufferView": 2,
      "byteOffset": 4718304,
      "componentType": 5126,
      "count": 65532,
      "max": [
        59.38825988769531,
        3.2456839084625244,
        28.849597930908203
      ],
      "min": [
        5.866139888763428,
        1.6680810451507568,
        0.12129974365234375
      ],
      "type": "VEC3"
    },
    {
      "bufferView": 2,
      "byteOffset": 5504688,
      "componentType": 5126,
      "count": 65532,
      "max": [
        0.9997468590736389,
        0.9998777508735657,
        0.9994890689849854
      ],
      "min": [
        -0.9998125433921814,
        -0.9999998807907104,
        -0.9997804760932922
      ],
      "type": "VEC3"
    },
    {
      "bufferView": 1,
      "byteOffset": 1572768,
      "componentType": 5126,
      "count": 65532,
      "max": [
        0.9954910278320313,
        0.9998360276222229
      ],
      "min": [
        0.0004400000034365803,
        0.003942000214010477
      ],
      "type": "VEC2"
    },
    {
      "bufferView": 0,
      "byteOffset": 3191184,
      "componentType": 5125,
      "count": 277485,
      "type": "SCALAR"
    },
    {
      "bufferView": 2,
      "byteOffset": 6291072,
      "componentType": 5126,
      "count": 65532,
      "max": [
        59.38913345336914,
        3.244067907333374,
        29.40107536315918
      ],
      "min": [
        0.0,
        1.9163830280303955,
        0.0
      ],
      "type": "VEC3"
    },
    {
      "bufferView": 2,
      "byteOffset": 7077456,
      "componentType": 5126,
      "count": 65532,
      "max": [
        0.9997786283493042,
        0.9999740719795227,
        0.9996865391731262
      ],
      "min": [
        -0.9994110465049744,
        -0.9999998807907104,
        -0.9999406933784485
      ],
      "type": "VEC3"
    },
    {
      "bufferView": 1,
      "byteOffset": 2097024,
      "componentType": 5126,
      "count": 65532,
      "max": [
        0.9951320290565491,
        0.9998630285263062
      ],
      "min": [
        0.0001990000018849969,
        0.003992999903857708
      ],
      "type": "VEC2"
    },
    {
      "bufferView": 0,
      "byteOffset": 4301124,
      "componentType": 5125,
      "count": 252363,
      "type": "SCALAR"
    },
    {
      "bufferView": 2,
      "byteOffset": 7863840,
      "componentType": 5126,
      "count": 55271,
      "max": [
        58.72492599487305,
        3.078974962234497,
        29.315872192382813
      ],
      "min": [
        4.293649673461914,
        1.7756149768829346,
        0.008710861206054688
      ],
      "type": "VEC3"
    },
    {
      "bufferView": 2,
      "byteOffset": 8527092,
      "componentType": 5126,
      "count": 55271,
      "max": [
        0.9996724724769592,
        0.9999679327011108,
        0.9997920989990234
      ],
      "min": [
        -0.999403178691864,
        -0.999999463558197,
        -0.9999406933784485
      ],
      "type": "VEC3"
    },
    {
      "bufferView": 1,
      "byteOffset": 2621280,
      "componentType": 5126,
      "count": 55271,
      "max": [
        0.9955250024795532,
        1.0001360177993774
      ],
      "min": [
        0.00024500000290572643,
        0.003920999821275473
      ],
      "type": "VEC2"
    },
    {
      "bufferView": 0,
      "byteOffset": 5310576,
      "componentType": 5125,
      "count": 172356,
      "type": "SCALAR"
    }
  ],
  "asset": {
    "extras": {
      "author": "Maritime Archaeology (https://sketchfab.com/maritimearchaeologytrust)",
      "license": "CC-BY-NC-4.0 (http://creativecommons.org/licenses/by-nc/4.0/)",
      "source": "https://sketchfab.com/3d-models/qatar-map-2017-wreck-1-b6c4c921718744a8add9d5ec50533e64",
      "title": "Qatar MAP 2017 - Wreck 1"
    },
    "generator": "Sketchfab-16.12.0",
    "version": "2.0"
  },
  "bufferViews": [
    {
      "buffer": 0,
      "byteLength": 6000000,
      "name": "floatBufferViews",
      "target": 34963
    },
    {
      "buffer": 0,
      "byteLength": 3063448,
      "byteOffset": 6000000,
      "byteStride": 8,
      "name": "floatBufferViews",
      "target": 34962
    },
    {
      "buffer": 0,
      "byteLength": 9190344,
      "byteOffset": 9063448,
      "byteStride": 12,
      "name": "floatBufferViews",
      "target": 34962
    }
  ],
  "buffers": [
    {
      "byteLength": 18253792,
      "uri": "scene.bin"
    }
  ],
  "extensionsRequired": [
    "KHR_materials_pbrSpecularGlossiness"
  ],
  "extensionsUsed": [
    "KHR_materials_pbrSpecularGlossiness"
  ],
  "images": [
    {
      "uri": "textures/Day3-Site1_500k_8192_diffuse.jpeg"
    }
  ],
  "materials": [
    {
      "doubleSided": true,
      "extensions": {
        "KHR_materials_pbrSpecularGlossiness": {
          "diffuseFactor": [
            1.0,
            1.0,
            1.0,
            1.0
          ],
          "diffuseTexture": {
            "index": 0
          },
          "glossinessFactor": 0.0,
          "specularFactor": [
            0.0,
            0.0,
            0.0
          ]
        }
      },
      "name": "Day3-Site1_500k_8192"
    }
  ],
  "meshes": [
    {
      "name": "Object_0",
      "primitives": [
        {
          "attributes": {
            "NORMAL": 1,
            "POSITION": 0,
            "TEXCOORD_0": 2
          },
          "indices": 3,
          "material": 0,
          "mode": 4
        }
      ]
    },
    {
      "name": "Object_1",
      "primitives": [
        {
          "attributes": {
            "NORMAL": 5,
            "POSITION": 4,
            "TEXCOORD_0": 6
          },
          "indices": 7,
          "material": 0,
          "mode": 4
        }
      ]
    },
    {
      "name": "Object_2",
      "primitives": [
        {
          "attributes": {
            "NORMAL": 9,
            "POSITION": 8,
            "TEXCOORD_0": 10
          },
          "indices": 11,
          "material": 0,
          "mode": 4
        }
      ]
    },
    {
      "name": "Object_3",
      "primitives": [
        {
          "attributes": {
            "NORMAL": 13,
            "POSITION": 12,
            "TEXCOORD_0": 14
          },
          "indices": 15,
          "material": 0,
          "mode": 4
        }
      ]
    },
    {
      "name": "Object_4",
      "primitives": [
        {
          "attributes": {
            "NORMAL": 17,
            "POSITION": 16,
            "TEXCOORD_0": 18
          },
          "indices": 19,
          "material": 0,
          "mode": 4
        }
      ]
    },
    {
      "name": "Object_5",
      "primitives": [
        {
          "attributes": {
            "NORMAL": 21,
            "POSITION": 20,
            "TEXCOORD_0": 22
          },
          "indices": 23,
          "material": 0,
          "mode": 4
        }
      ]
    }
  ],
  "nodes": [
    {
      "children": [
        1
      ],
      "matrix": [
        1.0,
        0.0,
        0.0,
        0.0,
        0.0,
        -1.0,
        -4.440892098500626e-16,
        0.0,
        0.0,
        4.440892098500626e-16,
        -1.0,
        0.0,
        0.0,
        0.0,
        0.0,
        1.0
      ],
      "name": "Sketchfab_model"
    },
    {
      "children": [
        2
      ],
      "matrix": [
        1.0,
        0.0,
        0.0,
        0.0,
        0.0,
        1.0,
        0.0,
        0.0,
        0.0,
        0.0,
        1.0,
        0.0,
        -13.633975982666016,
        0.6891099810600281,
        -20.251462936401367,
        1.0
      ],
      "name": "Day3-Site1_500k_8192.obj.cleaner.materialmerger.gles"
    },
    {
      "children": [
        3,
        4,
        5,
        6,
        7,
        8
      ],
      "name": "Object_2"
    },
    {
      "mesh": 0,
      "name": "Object_3"
    },
    {
      "mesh": 1,
      "name": "Object_4"
    },
    {
      "mesh": 2,
      "name": "Object_5"
    },
    {
      "mesh": 3,
      "name": "Object_6"
    },
    {
      "mesh": 4,
      "name": "Object_7"
    },
    {
      "mesh": 5,
      "name": "Object_8"
    }
  ],
  "samplers": [
    {
      "magFilter": 9729,
      "minFilter": 9987,
      "wrapS": 10497,
      "wrapT": 10497
    }
  ],
  "scene": 0,
  "scenes": [
    {
      "name": "Sketchfab_Scene",
      "nodes": [
        0
      ]
    }
  ],
  "textures": [
    {
      "sampler": 0,
      "source": 0
    }
  ]
}
