{
  "accessors": [
    {
      "bufferView": 2,
      "componentType": 5126,
      "count": 16413,
      "max": [
        0.7714040279388428,
        2.4609813690185547,
        2.267273426055908
      ],
      "min": [
        -0.7714040279388428,
        0.0,
        -2.2552199363708496
      ],
      "type": "VEC3"
    },
    {
      "bufferView": 2,
      "byteOffset": 196956,
      "componentType": 5126,
      "count": 16413,
      "max": [
        0.9999899864196777,
        0.9996182322502136,
        0.9999082684516907
      ],
      "min": [
        -0.9999899864196777,
        -0.9999730587005615,
        -0.9999524354934692
      ],
      "type": "VEC3"
    },
    {
      "bufferView": 1,
      "componentType": 5126,
      "count": 16413,
      "max": [
        0.9957416653633118,
        0.9949849843978882
      ],
      "min": [
        0.0049264878034591675,
        0.00429689884185791
      ],
      "type": "VEC2"
    },
    {
      "bufferView": 1,
      "byteOffset": 131304,
      "componentType": 5126,
      "count": 16413,
      "max": [
        0.9957416653633118,
        0.9949849843978882
      ],
      "min": [
        0.0049264878034591675,
        0.00429689884185791
      ],
      "type": "VEC2"
    },
    {
      "bufferView": 1,
      "byteOffset": 262608,
      "componentType": 5126,
      "count": 16413,
      "max": [
        0.9957416653633118,
        0.9949849843978882
      ],
      "min": [
        0.0049264878034591675,
        0.00429689884185791
      ],
      "type": "VEC2"
    },
    {
      "bufferView": 0,
      "componentType": 5125,
      "count": 94644,
      "type": "SCALAR"
    }
  ],
  "asset": {
    "extras": {
      "author": "FrigidCarlKid (https://sketchfab.com/kmorganc1)",
      "license": "CC-BY-4.0 (http://creativecommons.org/licenses/by/4.0/)",
      "source": "https://sketchfab.com/3d-models/clown-fish-ea6e5141407648b49ed41234344cbc7f",
      "title": "Clown Fish"
    },
    "generator": "Sketchfab-15.14.0",
    "version": "2.0"
  },
  "bufferViews": [
    {
      "buffer": 0,
      "byteLength": 378576,
      "name": "floatBufferViews",
      "target": 34963
    },
    {
      "buffer": 0,
      "byteLength": 393912,
      "byteOffset": 378576,
      "byteStride": 8,
      "name": "floatBufferViews",
      "target": 34962
    },
    {
      "buffer": 0,
      "byteLength": 393912,
      "byteOffset": 772488,
      "byteStride": 12,
      "name": "floatBufferViews",
      "target": 34962
    }
  ],
  "buffers": [
    {
      "byteLength": 1166400,
      "uri": "scene.bin"
    }
  ],
  "extensionsRequired": [
    "KHR_materials_pbrSpecularGlossiness"
  ],
  "extensionsUsed": [
    "KHR_materials_pbrSpecularGlossiness"
  ],
  "images": [
    {
      "uri": "textures/material_diffuse.png"
    },
    {
      "uri": "textures/material_specularGlossiness.png"
    }
  ],
  "materials": [
    {
      "doubleSided": true,
      "extensions": {
        "KHR_materials_pbrSpecularGlossiness": {
          "diffuseFactor": [
            1.0,
            1.0,
            1.0,
            1.0
          ],
          "diffuseTexture": {
            "index": 0
          },
          "glossinessFactor": 1.0,
          "specularFactor": [
            1.0,
            1.0,
            1.0
          ],
          "specularGlossinessTexture": {
            "index": 1
          }
        }
      },
      "name": "material"
    }
  ],
  "meshes": [
    {
      "name": "Object_0",
      "primitives": [
        {
          "attributes": {
            "NORMAL": 1,
            "POSITION": 0,
            "TEXCOORD_0": 2,
            "TEXCOORD_1": 3,
            "TEXCOORD_2": 4
          },
          "indices": 5,
          "material": 0,
          "mode": 4
        }
      ]
    }
  ],
  "nodes": [
    {
      "children": [
        1
      ],
      "matrix": [
        1.0,
        0.0,
        0.0,
        0.0,
        0.0,
        2.220446049250313e-16,
        -1.0,
        0.0,
        0.0,
        1.0,
        2.220446049250313e-16,
        0.0,
        0.0,
        0.0,
        0.0,
        1.0
      ],
      "name": "Sketchfab_model"
    },
    {
      "children": [
        2
      ],
      "name": "root"
    },
    {
      "children": [
        3
      ],
      "matrix": [
        1.0,
        0.0,
        0.0,
        0.0,
        0.0,
        2.220446049250313e-16,
        1.0,
        0.0,
        0.0,
        -1.0,
        2.220446049250313e-16,
        0.0,
        0.0,
        0.0,
        0.0,
        1.0
      ],
      "name": "GLTF_SceneRootNode"
    },
    {
      "children": [
        4
      ],
      "name": "root_0"
    },
    {
      "children": [
        5
      ],
      "matrix": [
        0.6591669917106628,
        -0.0,
        -2.4555883992860572e-09,
        0.0,
        0.0,
        0.6591669917106628,
        -0.0,
        0.0,
        2.4555883992860572e-09,
        0.0,
        0.6591669917106628,
        0.0,
        0.023353394120931625,
        -0.3330000042915344,
        -0.5536191463470459,
        1.0
      ],
      "name": "node_id245_4"
    },
    {
      "mesh": 0,
      "name": "Object_5"
    }
  ],
  "samplers": [
    {
      "magFilter": 9729,
      "minFilter": 9987,
      "wrapS": 10497,
      "wrapT": 10497
    }
  ],
  "scene": 0,
  "scenes": [
    {
      "name": "Sketchfab_Scene",
      "nodes": [
        0
      ]
    }
  ],
  "textures": [
    {
      "sampler": 0,
      "source": 0
    },
    {
      "sampler": 0,
      "source": 1
    }
  ]
}
